<svg xmlns="http://www.w3.org/2000/svg" width="1040" height="400" fill="none" xmlns:v="https://vecta.io/nano"><style><![CDATA[.B{stroke-linejoin:round}.C{stroke-linecap:round}.D{stroke:#0572ec}.E{stroke:#66cbff}.F{stroke:#35414c}.G{stroke:#cda5dc}.H{stroke-miterlimit:10}]]></style><path fill="#051627" d="M0 0h1040v400H0z"/><path opacity=".3" d="M519.884 127L457 163.363v72.727l62.884 36.363 63.157-36.363v-72.727L519.884 127z" fill="#35414c"/><g stroke-width="2" class="H B"><g class="C"><path d="M531.353 157.741v-26.455c0-3.893 4.326-6.489 7.643-4.47l32.158 18.459c2.74 1.586 2.74 5.48 0 7.066l-45.281 25.236c-2.596 1.443-5.913 1.443-8.509 0l-28.697-16.151" class="D"/><path d="M520.104 116l-65.038 37.639a4.74 4.74 0 0 0 0 8.22l58.693 33.889c3.894 2.307 8.797 2.307 12.835 0l58.693-33.889c3.173-1.875 7.066.432 7.066 4.037v69.798c0 3.316-1.73 6.489-4.614 8.075l-67.49 38.937" stroke="#f1faff"/><path d="M505.828 274.342l-53.646-31.005c-2.596-1.442-4.182-4.326-4.182-7.355v-54.799c0-2.885 3.028-4.615 5.48-3.173l55.088 32.159" class="G"/><path d="M478.284 214.783l38.36 22.209c2.163 1.298 3.461 3.605 3.461 6.056v18.603" class="E"/><path d="M456.797 202.958l13.988 8.076" class="D"/><path d="M456.797 220.119l32.879 18.892m62.044-21.465l20.444 11.803c3.749 2.163 8.508-.577 8.508-4.903v-40.091c0-2.451-2.74-4.037-4.903-2.74l-33.168 19.036" class="E"/><path d="M564.088 236.992l-22.496 12.978c-3.029 1.731-6.922-.432-6.922-4.037v-23.218" class="D"/><path d="M555.578 99.394l67.807 38.242a10 10 0 0 1 5.087 8.71v70.696a10 10 0 0 0 4.974 8.644l61.91 36.002a10 10 0 0 0 10.058-.002l61.771-35.957c3.116-1.813 6.967-1.809 10.079.01l137.09 80.168" class="G"/><path d="M556.407 116.174l53.344 30.27c3.13 1.777 5.065 5.098 5.065 8.698v70.383a10 10 0 0 0 5.01 8.667l74.84 43.086a10 10 0 0 0 9.846.075l62.502-34.723c3.101-1.722 6.882-1.673 9.938.129l104.406 61.601" class="F"/><path d="M484.418 305.906l-67.807-38.241a10 10 0 0 1-5.087-8.711v-70.695c0-3.562-1.895-6.854-4.973-8.645l-61.911-36.001a10 10 0 0 0-10.058.002l-61.771 35.956a10 10 0 0 1-10.079-.01l-137.09-80.167" class="G"/><path d="M421.525 289.226l-19.917-11.081a10 10 0 0 1-5.138-8.739v-70.625a10 10 0 0 0-5.014-8.668l-46.257-26.608" class="F"/><path d="M486.005 98.498l-67.749 38.713a10 10 0 0 1-9.984-.035l-61.468-35.705a10 10 0 0 0-10.188.083l-58.83 35.48a10 10 0 0 1-10.133.116l-67.517-38.652" class="E"/><path d="M484.418 115.02l-67.748 38.714a10 10 0 0 1-9.984-.036l-61.469-35.705a10 10 0 0 0-10.187.084l-58.83 35.48a10 10 0 0 1-10.133.115l-67.518-38.652" class="F"/><path d="M841.447 305.742l-67.749-38.713a10 10 0 0 0-9.984.035l-61.468 35.705a10 10 0 0 1-10.187-.083l-58.837-35.484a10 10 0 0 0-10.123-.121l-30.438 17.381h0A19.22 19.22 0 0 0 583 301.135v16.079a1 1 0 0 0 1.523.852l25.744-15.79a20 20 0 0 0 9.507-18.258l-.274-4.518" class="E"/><path d="M840.963 321.512l-67.749-38.713a10 10 0 0 0-9.984.035l-61.468 35.705a10 10 0 0 1-10.187-.084l-63.863-38.515" class="F"/></g><g class="D"><path d="M800.711 185.246c-4.8-2.8-8.711-4-8.711-2.756v8.889c0 5.956 2.311 12.756 6.045 17.823l2.666 3.6 2.667-.533c3.734-.756 6.045-4.889 6.045-10.801v-8.889c0-1.289-3.911-4.578-8.712-7.333z"/><path d="M415.275 306.35l-33.826-19.781a10 10 0 0 1-4.952-8.632V208.12a10 10 0 0 0-4.807-8.546l-24.588-14.94a10 10 0 0 0-10.224-.096L325 191.453m-194.969-9.907l100.34 59.09a10 10 0 0 0 10.106.026L269 224.056" class="C"/></g><path d="M277.847 235.021l-37.59 21.942a10 10 0 0 1-10.115-.019l-100.334-59.087" class="C F"/><path d="M936.001 318.267l29.116 16.806M78.425 70.906l29.117 16.806" class="G C"/><path d="M856.013 313.992l16.846 9.682" class="C E"/><path d="M102.74 165.954l16.847 9.682m19.036 59.1l33.584 19.301" class="D C"/><path d="M173.793 82.871l16.847 9.682" class="C E"/><path d="M172.207 99.394l16.846 9.682" class="C F"/><path d="M906.293 258.455L821.5 210.683" class="C D"/><path d="M686.132 195.491l3.522 5.437 3.446 5.361-3.446 1.378-3.522 1.378m-15.24-22.055l-3.446 1.379-3.446 1.378 3.446 5.361 3.446 5.437M676.711 185l3.982 24.658" class="G C"/><path d="M353.057 228.888l-12.892-7.428v-7.567c0-4.111 2.896-5.792 6.446-3.737s6.446 7.054 6.446 11.164v7.568z" class="D"/><g class="E"><path d="M352.45 253.599l-11.631-6.727c-1.775-1.028-3.223-3.55-3.223-5.605v-17.611c0-2.055 1.448-2.896 3.223-1.869l11.631 6.727c1.775 1.028 3.223 3.55 3.223 5.606v17.61c0 2.056-1.448 2.896-3.223 1.869z"/><path d="M667.589 164.87v-6.466c0-3.163 3.444-5.201 6.185-3.584l33.948 19.609c3.093 1.757 4.92 5.061 4.92 8.575v39.992c0 2.812-3.093 4.569-5.482 3.163l-6.045-3.514" class="C"/></g><g class="D"><path d="M701.115 189.962v39.993c0 2.811-3.093 4.568-5.483 3.162l-34.65-20.031c-3.093-1.757-4.92-5.06-4.92-8.575v-39.219c0-3.163 3.444-5.201 6.185-3.585l33.948 19.61c3.022 1.827 4.92 5.131 4.92 8.645z"/><path d="M648.98 111.629l81.307 46.802a10 10 0 0 1 5.012 8.667v26.683c0 3.83 4.129 6.238 7.463 4.351l23.849-13.5a10 10 0 0 1 10.064.123l14.164 8.483" class="C"/></g><path d="M686.432 115.416l59.594 35.108a10 10 0 0 1 4.924 8.616v17.448" class="C F"/><g class="D"><path d="M219.948 281.247l82.458 47.136a10 10 0 0 0 9.932-.003l30.718-17.592h0c2.751-1.753 2.722-5.778-.052-7.492L332 296.5" class="C"/><path d="M615.205 104.729c.014.002.029.002.043.001l.029-.002a.25.25 0 0 1 .229.123h0a.22.22 0 0 0 .034.046l4.49 4.738c.03.031.077.038.114.016h0c.01-.005.021-.009.033-.011l9.193-1.443a.12.12 0 0 0 .036-.013h0c.038-.022.058-.064.053-.106l-.674-5.258a.2.2 0 0 1 .005-.081h0a.21.21 0 0 1 .098-.128l.082-.047c1.506-.66 2.876-1.556 4.123-2.485h0a.76.76 0 0 1 .338-.102l.021-.001 9.377.328c.027.001.054-.006.077-.019h0c.028-.016.05-.041.062-.07l2.221-5.338h0c.019-.069-.021-.141-.089-.162l-8.095-2.493c-.048-.015-.094-.037-.137-.065l-.058-.038c-.031-.021-.057-.048-.076-.081h0a.26.26 0 0 1-.025-.062 9.82 9.82 0 0 0-1.754-3.564l-.01-.018c-.044-.077-.018-.176.059-.22h0c.012-.007.023-.015.032-.024l4.529-4.438c.074-.073.062-.196-.025-.254h0l-7.094-3.956c-.013-.007-.023-.017-.031-.03h0a.08.08 0 0 0-.098-.035l-7.091 2.751c-.027.011-.054.024-.08.038l-.006.003a.55.55 0 0 1-.242.073h0a.56.56 0 0 1-.145-.01l-6.5-1.015-.048.003c-.095.006-.184-.043-.231-.125h0c-.009-.016-.02-.03-.032-.044l-4.199-4.592c-.029-.032-.077-.039-.114-.018h0c-.01.006-.02.009-.031.011l-9.149 1.522c-.013.002-.025.007-.036.013h0c-.038.022-.059.063-.054.106l.573 4.899c.003.027.001.054-.006.08h0a.21.21 0 0 1-.099.129l-.055.032c-.017.01-.035.019-.054.026-2.034.766-3.619 1.78-4.918 2.937a.57.57 0 0 1-.09.065h0c-.072.041-.152.066-.235.07l-.077.005-8.395-.265c-.028-.001-.055.006-.079.02h0c-.027.016-.049.04-.061.069l-2.374 5.419c-.003.007-.008.012-.014.016h0c-.026.015-.021.054.008.062l7.75 2.274.147.039c.056.015.089.073.074.128h0c-.004.015-.004.031-.002.046.246 1.316.933 2.684 1.884 3.798.007.008.013.016.018.025l.002.004a.16.16 0 0 1-.059.221h0a.2.2 0 0 0-.032.024l-4.337 4.224c-.075.073-.063.196.024.253h0l7.049 3.878c.013.007.023.017.031.03h0a.08.08 0 0 0 .098.035l7.106-2.757a.4.4 0 0 0 .051-.025h0a.37.37 0 0 1 .28-.037l.1.027 6.538.825zm.527-18.011c5.845-.229 11.004 2.35 11.537 5.817s-3.767 6.369-9.736 6.565c-5.845.229-11.004-2.35-11.537-5.817s3.767-6.37 9.736-6.565zM295.66 83.03l.906 5.709-9.787-.544.815 5.347-9.334-.453-.09.091.906 5.528c-1.178-.453-6.978-1.269-10.15-.997-10.24 1.087-16.04 5.71-15.224 10.694s10.24 8.609 19.302 7.884c8.609-.634 15.043-4.803 14.228-9.787-.181-.906-.544-1.813-1.088-2.719l22.747-13.14-1.088-6.978-12.143-.634z"/></g><path d="M768.316 142.253l-44.193-25.47c-4.543-2.616-8.123-8.949-8.123-14.181v-1.789c0-5.232 3.717-7.297 8.123-4.681l44.193 25.469c4.543 2.616 8.123 8.949 8.123 14.181v1.79c0 5.094-3.717 7.296-8.123 4.681z" class="E"/></g><path d="M759.372 129.373c-1.06-2.19-.92-4.449.312-5.045s3.089.696 4.149 2.886.921 4.449-.311 5.045-3.09-.696-4.15-2.886zm-10.284-6.16c-1.059-2.19-.92-4.449.312-5.045s3.09.696 4.15 2.886.92 4.449-.312 5.045-3.09-.696-4.15-2.886zm-10.413-5.826c-1.06-2.19-.921-4.449.311-5.045s3.09.696 4.15 2.886.92 4.449-.312 5.045-3.09-.696-4.149-2.886zm-10.671-6.242c-1.06-2.19-.92-4.448.312-5.045s3.089.696 4.149 2.886.921 4.449-.311 5.045-3.09-.696-4.15-2.886z" fill="#66cbff"/><g stroke-width="2"><g class="B H"><g class="G"><path d="M278.008 212.212v23.004c0 2.114 2.239 3.357 3.98 2.362l33.2-19.149c1.617-.995 2.612-2.611 2.612-4.476v-23.129c0-2.114-2.239-3.357-3.98-2.363l-33.2 19.15c-1.617.995-2.612 2.735-2.612 4.601z"/><path d="M317.662 195.816l-39.653 22.862" class="C"/></g><path d="M763.092 300.766l27.898 16.231" class="C D"/><path d="M805.404 131.269c10.185 5.917 10.185 34.151 20.371 40.068s10.185-22.393 20.371-16.477 10.185 34.152 20.371 40.068 10.185-22.393 20.371-16.476 10.185 34.151 20.371 40.067l41.746 24.142m-706.091 79.453l-48.104-27.691-7.49-4.403c-1.549-.906-2.453-2.849-1.937-4.662l3.358-13.728c-1.937-3.108-3.228-6.993-3.228-10.49 0-5.828 3.486-8.677 7.618-6.216 4.261 2.461 7.618 9.195 7.618 15.023 0 3.626-1.291 5.957-3.228 6.864l3.228 11.927" class="E C"/></g><path d="M850.126 141.596c.831 1.563 1.153 3.155 1.047 4.438-.108 1.295-.625 2.134-1.32 2.503s-1.68.33-2.814-.306c-1.123-.629-2.262-1.785-3.094-3.348s-1.152-3.155-1.046-4.437c.107-1.296.625-2.135 1.32-2.504s1.68-.33 2.814.306c1.123.629 2.262 1.785 3.093 3.348zm40.224 23.054c.831 1.563 1.153 3.155 1.046 4.437-.107 1.296-.625 2.134-1.32 2.504s-1.679.33-2.813-.306c-1.123-.629-2.263-1.786-3.094-3.349s-1.152-3.154-1.046-4.437c.107-1.295.625-2.134 1.32-2.503s1.68-.33 2.813.305c1.123.63 2.263 1.786 3.094 3.349z" class="E"/><path d="M196.646 195.155c3.453 5.981 8.029 10.503 12.588 13.003 4.578 2.51 8.974 2.909 12.266 1.008s5.145-5.907 5.261-11.127c.114-5.198-1.514-11.422-4.967-17.403s-8.029-10.503-12.588-13.003c-4.578-2.51-8.974-2.909-12.266-1.008s-5.145 5.907-5.261 11.127c-.114 5.198 1.514 11.422 4.967 17.403z" class="D"/><path d="M209.546 175.256v12.78l-11.411-6.846L138 146.5" class="B C E"/><g class="D"><path d="M264.464 279.003l19.043-12.188a2 2 0 0 1 1.078-.315h28.87c.357 0 .707.095 1.014.276l27.716 16.303c2.619 1.541 2.632 5.323.024 6.882l-30.607 18.289c-2.836 1.694-6.371 1.699-9.212.013l-37.812-22.451c-2.56-1.52-2.622-5.204-.114-6.809z"/><g class="C"><path d="M284 267l11.12 6.301a8 8 0 0 0 7.791.055L314.5 267M280 285l10.5-6.5M289 290l23-13.5M297.5 295l23-14M306 300l23.5-13.5M267 297l7.5-5.5"/><path d="M435 82.265l16.401 9.165c2.03 1.134 2.054 4.047.043 5.214l-31.351 18.191a9 9 0 0 1-9.147-.067L396.333 106M428.5 78.632l-3.994-2.232a5 5 0 0 0-4.979.058l-33.631 19.834c-1.306.77-1.313 2.657-.013 3.438l2.617 1.57L420 98l8.5-19.368z" class="B"/></g></g></g></svg>